<?xml version="1.0" encoding="utf-8"?>
<!-- Generator: Adobe Illustrator 27.4.0, SVG Export Plug-In . SVG Version: 6.00 Build 0)  -->
<svg version="1.1" id="레이어_1" xmlns="http://www.w3.org/2000/svg" xmlns:xlink="http://www.w3.org/1999/xlink" x="0px"
	 y="0px" viewBox="0 0 1080 1080" style="enable-background:new 0 0 1080 1080;" xml:space="preserve">
<style type="text/css">
	.st0{fill:#028202;}
</style>
<path d="M300.76,598.1h74.13c9.54-0.31,14.46-5.85,14.46-13.23c0-6.46-3.08-11.08-14.46-19.69c-14.16-11.08-18.77-24.62-18.77-36.92
	c0-28.62,23.08-52.62,59.7-52.62c14.46,0,24.62,2.46,30.46,5.85l-9.23,32.62c-4.31-2.46-11.69-4.62-18.16-4.62
	c-10.77,0-18.16,4.92-18.16,13.85c0,5.85,3.38,9.85,10.46,15.08c19.08,14.16,23.08,29.23,23.08,39.69c0,33.54-24,53.23-61.54,53.23
	h-80.74"/>
<path d="M127.69,631.49l40.62-212.93h45.54l-15.39,79.08l0.62,0.31c8.31-10.77,21.23-20.31,38.16-20.31c19.39,0,28,13.54,28,34.46
	c0,8.62-1.54,19.39-3.69,31.39l-16.92,88h-45.54L216,544.1c0.92-5.85,1.85-15.08,1.85-18.77c0-6.46-2.15-10.77-7.38-10.77
	c-6.46,0-16.31,8.92-20.62,30.77l-16.62,86.16H127.69z"/>
<polygon points="270.46,631.49 299.39,480.1 344.93,480.1 316,631.49 "/>
<path class="st0" d="M307.39,441.63c0-12.31,8.62-27.08,24.31-27.08c14.46,0,20.92,10.77,20.92,22.46c0,17.54-12,27.39-24.92,27.39
	C313.24,464.41,307.39,454.25,307.39,441.63z"/>
<path d="M433.24,690.57l31.08-162.16c3.08-16,5.54-32.31,8-48.31h38.46l-1.85,20.92h0.62c8.92-14.46,23.69-23.39,37.23-23.39
	c29.23,0,34.16,25.23,34.16,48.62c0,52-28.31,107.7-72,107.7c-7.08,0-14.46-0.92-18.77-3.08h-0.92l-11.08,59.7H433.24z
	 M495.39,597.95c2.77,1.54,5.23,2.77,9.23,2.77c18.77,0,29.85-43.7,29.85-66.47c0-8.31-0.31-18.15-9.85-18.15
	c-7.69,0-16,12-18.77,26.16L495.39,597.95z"/>
<path d="M716.02,532.41c0,51.39-28,101.54-73.85,101.54c-42.46,0-50.46-32.31-50.46-52.62c0-55.39,30.77-103.7,76.93-103.7
	C710.17,477.64,716.02,510.87,716.02,532.41z M636.32,579.8c0,8.31,0.31,20,10.46,20c14.77,0,24.62-45.85,24.62-73.54
	c0-7.69-2.46-14.46-10.15-14.46C648.01,511.79,636.01,555.18,636.32,579.8z"/>
<path d="M719.71,631.49l19.69-103.08c3.08-16,5.54-32.92,8-48.31h38.77c-0.62,8-1.23,16-2.15,24h1.23
	c11.69-19.39,25.54-26.46,37.23-26.46c2.77,0,4.92,0.31,7.08,0.92l-8.62,45.23c-1.54-0.31-5.23-0.62-7.69-0.62
	c-15.38,0-30.77,15.69-35.69,42.46l-12.31,65.85H719.71z"/>
<path d="M874.79,631.95c-26.16,0-38.46-12.46-38.46-34.93c0-7.38,1.23-16.31,2.46-22.15l12-49.08l-20.23-1l8.85-45.69l17.54,1
	l5.85-30.16l47.39-10.77l-7.69,40.93l28.31,1l-8.85,46.69l-25.62-2l-12,49.08c-0.62,4-0.92,7.69-0.92,10.15
	c0,10.15,5.54,13.23,12.31,13.23h11.36"/>
<path d="M863.38,597.1l87.1,2c9.54-0.31,14.46-5.85,14.46-13.23c0-6.46-3.08-11.08-14.46-19.69
	c-14.16-11.08-18.77-24.62-18.77-36.92c0-28.62,23.08-52.62,59.7-52.62c14.46,0,24.62,2.46,30.46,5.85l-9.23,32.62
	c-4.31-2.46-11.69-4.62-18.16-4.62c-10.77,0-18.16,4.92-18.16,13.85c0,5.85,3.38,9.85,10.46,15.08
	c19.08,14.16,23.08,29.23,23.08,39.69c0,33.54-24,53.23-61.54,53.23l-73.54-0.38"/>
</svg>
