<?xml version="1.0" encoding="utf-8"?>
<!-- Generator: Adobe Illustrator 27.4.0, SVG Export Plug-In . SVG Version: 6.00 Build 0)  -->
<svg version="1.1" id="레이어_1" xmlns="http://www.w3.org/2000/svg" xmlns:xlink="http://www.w3.org/1999/xlink" x="0px"
	 y="0px" viewBox="0 0 1080 1080" style="enable-background:new 0 0 1080 1080;" xml:space="preserve">
<style type="text/css">
	.st0{fill:#FFFFFF;}
	.st1{fill:#028202;}
</style>
<path class="st0" d="M128.55,436.46l-7.7,40.25h20.01l7.67-40.25h18.36l-18.89,98.86h-18.33l7.74-41.88h-19.78l-7.97,41.88H91.33
	l18.86-98.86H128.55z"/>
<path class="st0" d="M184.7,512.37l-8.64,22.96h-17.81l40.01-98.86h21.34l0.96,98.86h-17.75l0.27-22.96H184.7z M203.61,498.87
	l0.45-21.85c0.17-5.89,0.75-16.4,0.95-23.8h-0.35c-2.32,7.43-5.54,18.23-7.58,23.71l-7.97,21.94H203.61z"/>
<path class="st0" d="M230.82,535.32l18.86-98.86h16.77l7.57,39.26c2.54,13.07,4.18,22.51,4.96,30.66h0.29
	c1.24-10.88,2.96-27.8,6.07-44.29l4.91-25.63h15.72l-18.86,98.86h-15.67l-7.95-36.83c-3.09-13.76-3.95-20.59-5.04-32.84h-0.29
	c-1.2,9.95-3.43,26.32-6.66,43.39l-4.96,26.29H230.82z"/>
<path class="st0" d="M323.05,437.8c4.98-1,11.75-1.78,18.92-1.78c11.85,0,19.61,4.13,24.41,10.08c5.5,6.88,7.29,15.86,7.26,25.72
	c0,25.09-11.13,46.29-21.24,54.6c-8.07,6.73-16.91,9.34-29.86,9.34c-5.77,0-13.17-0.64-17.7-1.87L323.05,437.8z M325.11,519.72
	c1.24,0.18,3,0.47,4.86,0.47c6.02,0,12.8-4.87,17.04-13.63c4.57-9.44,7.85-21.76,7.85-36.59c0-9.49-2.91-19.19-12.28-19.19
	c-1.84,0-3.22,0.06-4.14,0.36L325.11,519.72z"/>
<path class="st0" d="M444.2,466.75c0,20.92-6.81,47.31-19.89,60.39c-6.21,6.21-13.31,9.36-21.87,9.36
	c-21.5,0-24.47-21.48-24.47-32.25c0-20.16,6.81-46.52,20.54-59.87c5.86-5.74,13-9.1,21.6-9.1
	C441.52,435.29,444.2,454.99,444.2,466.75z M411.09,454.52c-9.17,9.2-14.23,36.82-14.23,51.46c0,5.52,0.64,14.44,8.32,14.44
	c2.11,0,4.24-1.1,6.08-2.94c9.72-9.75,14.06-41.54,14.06-52.29c0-6.23-0.85-13.85-7.65-13.85
	C415.33,451.35,413.16,452.45,411.09,454.52z"/>
<path class="st0" d="M445.7,535.32l18.86-98.86h16.77l7.57,39.26c2.54,13.07,4.18,22.51,4.96,30.66h0.29
	c1.24-10.88,2.96-27.8,6.07-44.29l4.91-25.63h15.72L502,535.32h-15.67l-7.95-36.83c-3.09-13.76-3.95-20.59-5.04-32.84h-0.29
	c-1.2,9.95-3.43,26.32-6.66,43.39l-4.96,26.29H445.7z"/>
<path class="st0" d="M574.01,532.58c-5.46,2.02-11.81,3.63-19.52,3.63c-11.79,0-18.97-3.88-24-10.27c-4.95-6.08-7.4-15.69-7.4-24.62
	c0-20.34,6.72-39.52,18.73-52.16c8.25-8.79,19.89-13.58,32.04-13.58c8.16,0,12.8,1.43,15.64,2.57l-5.75,16.27
	c-2.38-1.14-6.67-2.05-10.75-2.05c-6.79,0-11.95,2.06-16.45,6.57c-8.07,8.07-14.11,23.73-14.11,42.13c0,12.26,4.01,19.3,11.92,19.3
	c2.07,0,3.62-0.12,5.29-0.54l4.5-24.57h-8.83l2.99-14.77h25.57L574.01,532.58z"/>
<path class="st0" d="M611.12,516.52c3.25,1.94,8.32,3.47,13.6,3.47c8.38,0.23,14.26-4.9,14.26-12.73c0-6.54-3.58-10.4-9.84-16.45
	c-7.7-7.39-11.77-15.28-11.77-23.95c0-18.38,12.98-31.28,32.29-31.28c7.65,0,12.49,1.61,14.8,3.11l-4.98,15.75
	c-2.93-1.5-6.16-2.64-10.65-2.64c-7.76,0-13.12,5.07-13.15,12.62c0,4.72,1.9,8.43,9.81,15.42c8.1,7.17,11.91,15.82,11.91,23.84
	c0,20.45-13.64,32.52-32.43,32.52c-9.92,0-16.19-2.2-18.48-3.64L611.12,516.52z"/>
<path class="st0" d="M682.53,437.8c6.04-1.11,13.74-1.78,19.85-1.78c6.56,0,16.58,1.36,22.64,7.93c4.21,4.57,6.03,11.67,6.03,17.02
	c0,13.72-6.5,24.09-12.76,29.56c-6.76,5.92-16.6,8.74-24.87,8.74c-1.58,0-3.18-0.06-4.65-0.19l-6.94,36.25h-17.87L682.53,437.8z
	 M691.73,483.96c1.16,0.12,2.26,0.19,3.45,0.19c13.39,0,17.44-13.24,17.44-21.84c0-6.68-3.04-11.29-10.24-11.29
	c-1.71,0-3.36,0.06-4.46,0.39L691.73,483.96z"/>
<path class="st0" d="M798.87,466.75c0,20.92-6.81,47.31-19.89,60.39c-6.21,6.21-13.31,9.36-21.87,9.36
	c-21.5,0-24.47-21.48-24.47-32.25c0-20.16,6.81-46.52,20.54-59.87c5.86-5.74,13-9.1,21.6-9.1
	C796.19,435.29,798.87,454.99,798.87,466.75z M765.76,454.52c-9.17,9.2-14.23,36.82-14.23,51.46c0,5.52,0.64,14.44,8.32,14.44
	c2.11,0,4.24-1.1,6.08-2.94c9.72-9.75,14.05-41.54,14.05-52.29c0-6.23-0.85-13.85-7.65-13.85
	C770,451.35,767.83,452.45,765.76,454.52z"/>
<path class="st0" d="M818.94,437.8c6.22-1.11,13.17-1.78,19.65-1.78c8.49,0,16.75,1.68,21.91,6.79c4.07,4.05,6.46,9.73,6.46,16.29
	c0,14.42-8.85,26.09-20.05,29.82v0.41c5.3,2.46,7.71,8.12,7.98,19.2c0.26,10.94,0.65,23.2,1.58,26.8H838.1
	c-0.53-2.73-0.76-12.72-0.74-23.66c-0.01-11.95-2.52-16-8.71-16h-3.03l-7.38,39.67h-17.87L818.94,437.8z M828.58,481.53h4.13
	c9.3,0,15.44-9.94,15.44-20.35c0-5.16-2.17-10.86-9.04-10.86c-1.88,0-3.68,0.15-4.9,0.5L828.58,481.53z"/>
<path class="st0" d="M891.21,453.77h-17.26l3.34-17.31h52.74l-3.34,17.31h-17.15l-15.63,81.55h-18.33L891.21,453.77z"/>
<path class="st0" d="M923.99,516.52c3.25,1.94,8.32,3.47,13.6,3.47c8.38,0.23,14.26-4.9,14.26-12.73c0-6.54-3.58-10.4-9.84-16.45
	c-7.7-7.39-11.77-15.28-11.77-23.95c0-18.38,12.98-31.28,32.29-31.28c7.65,0,12.49,1.61,14.8,3.11l-4.98,15.75
	c-2.93-1.5-6.16-2.64-10.65-2.64c-7.76,0-13.12,5.07-13.15,12.62c0,4.72,1.89,8.43,9.81,15.42c8.1,7.17,11.91,15.82,11.91,23.84
	c0,20.45-13.64,32.52-32.43,32.52c-9.92,0-16.19-2.2-18.48-3.64L923.99,516.52z"/>
<path class="st1" d="M349.17,711.34l5.34-38.72c1.06-8.08,2.96-18.81,5.32-31.68h-0.62c-4.24,12.93-8.77,24.36-11.69,31.05
	l-16.12,37.73h-13.18l-1.69-38.11c-0.24-6.7-0.73-17.81-0.39-30.68h-0.32c-2.52,12.93-4.78,23.61-6.72,31.71l-9.16,38.69h-15.82
	l25.04-98.86h19.5l1.77,46.97c0.24,7.31,0.53,17.57,0.27,24.69h0.36c1.92-7.12,5.72-17.29,8.66-24.75l18.91-46.91h19.43
	l-12.89,98.86H349.17z"/>
<path class="st1" d="M398.63,688.38l-8.64,22.96h-17.81l40.01-98.86h21.34l0.96,98.86h-17.75l0.27-22.96H398.63z M417.54,674.89
	l0.45-21.85c0.17-5.89,0.75-16.4,0.95-23.8h-0.35c-2.32,7.43-5.54,18.23-7.58,23.71l-7.97,21.94H417.54z"/>
<path class="st1" d="M463.57,629.79H446.3l3.34-17.31h52.74l-3.34,17.31H481.9l-15.64,81.55h-18.33L463.57,629.79z"/>
<path class="st1" d="M537.6,710.31c-3.17,1.27-7.63,1.92-13.57,1.92c-25.01,0-28.71-22.32-28.71-33.72
	c0-23.98,7.41-42.84,18.86-54.5c8.56-8.74,19.24-12.4,29.42-12.4c4.92,0,10.06,1.2,11.26,2.08l-5.15,16.04
	c-1.94-0.88-4.52-1.44-8.52-1.44c-5.03,0-10.8,3.17-14.84,8.29c-6.68,8.5-11.45,21.96-11.45,37.88c0,12.7,3.41,21.24,13.34,21.24
	c3.53,0,7.57-0.68,10.01-1.59L537.6,710.31z"/>
<path class="st1" d="M585.38,612.48l-7.7,40.25h20.01l7.67-40.25h18.36l-18.89,98.86h-18.33l7.74-41.88h-19.78l-7.97,41.88h-18.33
	l18.86-98.86H585.38z"/>
<path class="st1" d="M659.6,612.48l-18.89,98.86h-18.33l18.86-98.86H659.6z"/>
<path class="st1" d="M658.31,711.34l18.86-98.86h16.77l7.57,39.26c2.54,13.07,4.18,22.51,4.96,30.66h0.29
	c1.24-10.88,2.96-27.8,6.07-44.29l4.91-25.63h15.72l-18.86,98.86h-15.67l-7.95-36.83c-3.09-13.76-3.95-20.59-5.04-32.84h-0.29
	c-1.21,9.95-3.43,26.32-6.66,43.39l-4.96,26.29H658.31z"/>
<path class="st1" d="M786.62,708.59c-5.46,2.02-11.81,3.63-19.52,3.63c-11.79,0-18.97-3.88-24-10.27c-4.95-6.08-7.4-15.7-7.4-24.62
	c0-20.34,6.72-39.52,18.73-52.16c8.25-8.79,19.89-13.58,32.04-13.58c8.16,0,12.8,1.43,15.64,2.57l-5.75,16.27
	c-2.38-1.14-6.67-2.05-10.75-2.05c-6.79,0-11.95,2.06-16.45,6.57c-8.07,8.07-14.11,23.73-14.11,42.13c0,12.26,4.01,19.3,11.92,19.3
	c2.07,0,3.62-0.12,5.29-0.54l4.5-24.57h-8.83l2.99-14.77h25.57L786.62,708.59z"/>
</svg>
